<svg id="visual" viewBox="0 0 900 450" width="900" height="450" xmlns="http://www.w3.org/2000/svg" xmlns:xlink="http://www.w3.org/1999/xlink" version="1.1">
  <path d="M0 368L11.5 370.3C23 372.7 46 377.3 69 380.3C92 383.3 115 384.7 138.2 383.7C161.3 382.7 184.7 379.3 207.8 380C231 380.7 254 385.3 277 390C300 394.7 323 399.3 346 399.2C369 399 392 394 415.2 391C438.3 388 461.7 387 484.8 389.5C508 392 531 398 554 400.5C577 403 600 402 623 398.8C646 395.7 669 390.3 692.2 388C715.3 385.7 738.7 386.3 761.8 389.7C785 393 808 399 831 399C854 399 877 393 888.5 390L900 387L900 451L888.5 451C877 451 854 451 831 451C808 451 785 451 761.8 451C738.7 451 715.3 451 692.2 451C669 451 646 451 623 451C600 451 577 451 554 451C531 451 508 451 484.8 451C461.7 451 438.3 451 415.2 451C392 451 369 451 346 451C323 451 300 451 277 451C254 451 231 451 207.8 451C184.7 451 161.3 451 138.2 451C115 451 92 451 69 451C46 451 23 451 11.5 451L0 451Z" fill="#a8a89e" fill-opacity=".5"></path>
  <path d="M0 401L11.5 398.7C23 396.3 46 391.7 69 393.5C92 395.3 115 403.7 138.2 407.7C161.3 411.7 184.7 411.3 207.8 411.7C231 412 254 413 277 413C300 413 323 412 346 412C369 412 392 413 415.2 408C438.3 403 461.7 392 484.8 386.8C508 381.7 531 382.3 554 383.8C577 385.3 600 387.7 623 388C646 388.3 669 386.7 692.2 389.5C715.3 392.3 738.7 399.7 761.8 403.7C785 407.7 808 408.3 831 407.3C854 406.3 877 403.7 888.5 402.3L900 401L900 451L888.5 451C877 451 854 451 831 451C808 451 785 451 761.8 451C738.7 451 715.3 451 692.2 451C669 451 646 451 623 451C600 451 577 451 554 451C531 451 508 451 484.8 451C461.7 451 438.3 451 415.2 451C392 451 369 451 346 451C323 451 300 451 277 451C254 451 231 451 207.8 451C184.7 451 161.3 451 138.2 451C115 451 92 451 69 451C46 451 23 451 11.5 451L0 451Z" fill="#bdbdb5" fill-opacity=".5"></path>
  <path d="M0 416L11.5 415.7C23 415.3 46 414.7 69 412.5C92 410.3 115 406.7 138.2 406C161.3 405.3 184.7 407.7 207.8 410.2C231 412.7 254 415.3 277 417.2C300 419 323 420 346 420.8C369 421.7 392 422.3 415.2 421.7C438.3 421 461.7 419 484.8 417.7C508 416.3 531 415.7 554 416.8C577 418 600 421 623 421.8C646 422.7 669 421.3 692.2 416.8C715.3 412.3 738.7 404.7 761.8 401.3C785 398 808 399 831 403.5C854 408 877 416 888.5 420L900 424L900 451L888.5 451C877 451 854 451 831 451C808 451 785 451 761.8 451C738.7 451 715.3 451 692.2 451C669 451 646 451 623 451C600 451 577 451 554 451C531 451 508 451 484.8 451C461.7 451 438.3 451 415.2 451C392 451 369 451 346 451C323 451 300 451 277 451C254 451 231 451 207.8 451C184.7 451 161.3 451 138.2 451C115 451 92 451 69 451C46 451 23 451 11.5 451L0 451Z" fill="#d3d3cd" fill-opacity=".5"></path>
  <path d="M0 421L11.5 421.2C23 421.3 46 421.7 69 420C92 418.3 115 414.7 138.2 413.7C161.3 412.7 184.7 414.3 207.8 416.8C231 419.3 254 422.7 277 423C300 423.3 323 420.7 346 420.2C369 419.7 392 421.3 415.2 420.7C438.3 420 461.7 417 484.8 416.3C508 415.7 531 417.3 554 419.8C577 422.3 600 425.7 623 426.7C646 427.7 669 426.3 692.2 426.7C715.3 427 738.7 429 761.8 429C785 429 808 427 831 425.8C854 424.7 877 424.3 888.5 424.2L900 424L900 451L888.5 451C877 451 854 451 831 451C808 451 785 451 761.8 451C738.7 451 715.3 451 692.2 451C669 451 646 451 623 451C600 451 577 451 554 451C531 451 508 451 484.8 451C461.7 451 438.3 451 415.2 451C392 451 369 451 346 451C323 451 300 451 277 451C254 451 231 451 207.8 451C184.7 451 161.3 451 138.2 451C115 451 92 451 69 451C46 451 23 451 11.5 451L0 451Z" fill="#e9e9e6"></path>
  <path d="M0 442L11.5 441.3C23 440.7 46 439.3 69 436.7C92 434 115 430 138.2 427.7C161.3 425.3 184.7 424.7 207.8 426.3C231 428 254 432 277 432.8C300 433.7 323 431.3 346 429.5C369 427.7 392 426.3 415.2 428.2C438.3 430 461.7 435 484.8 435.5C508 436 531 432 554 429.5C577 427 600 426 623 427C646 428 669 431 692.2 433.3C715.3 435.7 738.7 437.3 761.8 438C785 438.7 808 438.3 831 436.3C854 434.3 877 430.7 888.5 428.8L900 427L900 451L888.5 451C877 451 854 451 831 451C808 451 785 451 761.8 451C738.7 451 715.3 451 692.2 451C669 451 646 451 623 451C600 451 577 451 554 451C531 451 508 451 484.8 451C461.7 451 438.3 451 415.2 451C392 451 369 451 346 451C323 451 300 451 277 451C254 451 231 451 207.8 451C184.7 451 161.3 451 138.2 451C115 451 92 451 69 451C46 451 23 451 11.5 451L0 451Z" fill="#ffffff"></path>
</svg>